<svg xmlns="http://www.w3.org/2000/svg" xmlns:xlink="http://www.w3.org/1999/xlink" width="500" zoomAndPan="magnify" viewBox="0 0 375 374.999991" height="500" preserveAspectRatio="xMidYMid meet" version="1.0"><defs><clipPath id="id1"><path d="M 118.605469 25.054688 L 327.996094 25.054688 L 327.996094 182.363281 L 118.605469 182.363281 Z M 118.605469 25.054688 " clip-rule="nonzero"/></clipPath><clipPath id="id2"><path d="M 121.625 151.078125 L 327.996094 151.078125 L 327.996094 349.800781 L 121.625 349.800781 Z M 121.625 151.078125 " clip-rule="nonzero"/></clipPath><clipPath id="id3"><path d="M 262.199219 151.078125 L 327.996094 151.078125 L 327.996094 189.296875 L 262.199219 189.296875 Z M 262.199219 151.078125 " clip-rule="nonzero"/></clipPath><clipPath id="id4"><path d="M 46.78125 68 L 182 68 L 182 309 L 46.78125 309 Z M 46.78125 68 " clip-rule="nonzero"/></clipPath></defs><g clip-path="url(#id1)"><path fill="rgb(25.489807%, 75.689697%, 72.938538%)" d="M 260.015625 142.9375 L 260.722656 143.34375 L 327.996094 182.191406 L 327.996094 106.238281 L 258.402344 66.050781 L 258.398438 66.050781 L 187.402344 25.054688 L 118.617188 64.773438 L 118.617188 140.726562 L 187.402344 101.007812 L 260.015625 142.9375 " fill-opacity="1" fill-rule="nonzero"/></g><g clip-path="url(#id2)"><path fill="rgb(25.489807%, 75.689697%, 72.938538%)" d="M 260.71875 231.515625 L 190.421875 272.101562 L 188.914062 272.980469 L 121.632812 311.828125 L 187.402344 349.800781 L 257.699219 309.210938 L 327.996094 268.613281 L 327.996094 189.171875 L 262.230469 151.195312 L 262.230469 230.636719 L 260.71875 231.515625 " fill-opacity="1" fill-rule="nonzero"/></g><g clip-path="url(#id3)"><path fill="rgb(25.489807%, 75.689697%, 72.938538%)" d="M 327.996094 189.171875 L 262.230469 151.191406 L 262.230469 151.195312 L 327.996094 189.171875 " fill-opacity="1" fill-rule="nonzero"/></g><g clip-path="url(#id4)"><path fill="rgb(25.489807%, 75.689697%, 72.938538%)" d="M 112.574219 151.195312 L 112.574219 68.265625 L 46.804688 106.242188 L 46.804688 268.617188 L 115.597656 308.335938 L 149.84375 288.558594 L 181.363281 270.359375 L 112.574219 230.640625 L 112.574219 151.195312 " fill-opacity="1" fill-rule="nonzero"/></g><path fill="rgb(25.489807%, 75.689697%, 72.938538%)" d="M 181.363281 270.359375 L 149.84375 288.558594 Z M 181.363281 270.359375 " fill-opacity="1" fill-rule="nonzero"/></svg>